<?xml version="1.0" encoding="UTF-8" standalone="no"?>
<!-- Created with Inkscape (http://www.inkscape.org/) -->

<svg
   width="616"
   height="170"
   viewBox="0 0 162.98391 44.979237"
   version="1.1"
   id="svg1"
   xml:space="preserve"
   inkscape:version="1.3 (0e150ed6c4, 2023-07-21)"
   sodipodi:docname="logo1.svg"
   xmlns:inkscape="http://www.inkscape.org/namespaces/inkscape"
   xmlns:sodipodi="http://sodipodi.sourceforge.net/DTD/sodipodi-0.dtd"
   xmlns="http://www.w3.org/2000/svg"
   xmlns:svg="http://www.w3.org/2000/svg"><sodipodi:namedview
     id="namedview1"
     pagecolor="#ffffff"
     bordercolor="#000000"
     borderopacity="0.25"
     inkscape:showpageshadow="2"
     inkscape:pageopacity="0.0"
     inkscape:pagecheckerboard="0"
     inkscape:deskcolor="#d1d1d1"
     inkscape:document-units="mm"
     inkscape:zoom="1.0078851"
     inkscape:cx="434.57335"
     inkscape:cy="336.34786"
     inkscape:window-width="1920"
     inkscape:window-height="1009"
     inkscape:window-x="1912"
     inkscape:window-y="-8"
     inkscape:window-maximized="1"
     inkscape:current-layer="layer1"
     showgrid="false" /><defs
     id="defs1" /><g
     inkscape:label="Layer 1"
     inkscape:groupmode="layer"
     id="layer1"><g
       id="g1"
       transform="translate(-26.028641,-126.01038)"><g
         id="g8"
         transform="matrix(0.91874768,0,0,0.91874768,51.987518,-8.4538281)"
         style="fill:#f44d27;fill-opacity:1"><path
           id="rect1"
           style="fill:#f44d27;fill-opacity:1;stroke:#000000;stroke-width:0"
           d="m 123.39301,160.21608 c -0.22113,0 -2.70848,0.91652 -2.92575,1.07812 -0.0516,0.0384 0.24709,0.86938 0.66347,1.84645 l 0.75705,1.77653 -0.84295,0.85599 -0.84235,0.85599 -1.83993,-0.74759 -1.83935,-0.74758 -0.60243,1.55973 -0.60186,1.55973 1.78721,0.81985 c 1.72491,0.79155 1.78686,0.86007 1.78187,1.97143 -0.005,1.11206 -0.0645,1.17678 -1.74397,1.88791 -0.95634,0.40496 -1.77625,0.76065 -1.82214,0.79082 -0.0807,0.0531 1.09517,2.92208 1.26887,3.09577 0.0472,0.0472 0.87716,-0.26429 1.84407,-0.6919 l 1.75818,-0.77719 0.84708,0.81155 0.84712,0.81156 -0.61904,1.5544 c -0.34058,0.85481 -0.67976,1.70391 -0.75351,1.88671 -0.12338,0.30579 2.05627,1.33582 2.82682,1.33582 0.18357,0 0.63881,-0.75067 1.0112,-1.66814 0.65938,-1.62465 0.70779,-1.66813 1.87013,-1.66813 1.25777,0 1.29694,0.048 2.39973,2.9453 l 0.2553,0.67057 1.55085,-0.64451 c 1.11955,-0.46527 1.51101,-0.77826 1.40808,-1.12551 -0.0784,-0.26457 -0.39085,-1.13087 -0.69486,-1.92464 l -0.55269,-1.44303 0.77839,-0.77897 c 0.77055,-0.77056 0.79147,-0.77343 1.96196,-0.27427 2.68904,1.14672 2.46973,1.17168 3.14551,-0.35603 0.33875,-0.76578 0.61608,-1.5006 0.61608,-1.63258 0,-0.13199 -0.82501,-0.55827 -1.83282,-0.94722 l -1.83222,-0.70671 0.0883,-1.19659 c 0.0844,-1.14149 0.16524,-1.22685 1.75699,-1.87251 1.82651,-0.74088 1.90117,-0.94218 1.08228,-2.90028 l -0.4668,-1.11663 -1.8269,0.78785 -1.8263,0.78847 -0.75587,-0.71026 c -0.91197,-0.85675 -0.92477,-1.07658 -0.1564,-2.76996 0.32998,-0.72718 0.60238,-1.45867 0.60543,-1.62548 0.005,-0.27569 -2.24318,-1.36484 -2.81735,-1.36484 -0.13254,0 -0.57287,0.75067 -0.97861,1.66813 -0.71313,1.61252 -0.77743,1.66814 -1.92582,1.66814 -1.15401,0 -1.20799,-0.0478 -1.87961,-1.66814 -0.38027,-0.91746 -0.79966,-1.66813 -0.93241,-1.66813 z m 2.90384,6.96695 c 1.21047,0.0253 2.35444,0.65724 3.15323,1.83281 1.05984,1.55978 0.80046,3.4189 -0.66525,4.76212 -0.93238,0.85446 -1.3078,0.99638 -2.63845,0.99638 -1.35256,0 -1.6802,-0.12937 -2.55847,-1.00764 -1.84446,-1.84445 -1.5985,-4.66954 0.51892,-5.9605 0.71383,-0.43521 1.46374,-0.6384 2.19002,-0.62317 z"
           sodipodi:nodetypes="ssssscccccccccssscccccssssccsssccssscccscccccscssssscssss" /><g
           style="fill:#f44d27;fill-opacity:1"
           id="g6"
           transform="matrix(0,-0.2108066,0.2108066,0,102.25652,198.66256)"><path
             d="M 197.37727,32.067668 162.42758,9.2106523 V 22.001727 H 58.600115 c -18.884,0 -30.706647,15.363 -30.706647,34.246 V 191.76393 l 20.868149,0.0362 0.377123,-141.976367 c 0.01157,-4.356985 3.545003,-7.89748 7.902,-7.903 l 105.38584,-0.112855 v 11.701454 z"
             id="path6"
             sodipodi:nodetypes="cccssccssccc"
             style="fill:#f44d27;fill-opacity:1" /></g><g
           style="fill:#f44d27;fill-opacity:1"
           id="g7"
           transform="matrix(0,0.2108066,-0.2108066,0,149.6428,143.0065)"><path
             d="M 197.37727,32.067668 162.42758,9.2106523 V 22.001727 H 58.600115 c -18.884,0 -30.706647,15.363 -30.706647,34.246 V 191.76393 l 20.868149,0.0362 0.377123,-141.976367 c 0.01157,-4.356985 3.545003,-7.89748 7.902,-7.903 l 105.38584,-0.112855 v 11.701454 z"
             id="path7"
             sodipodi:nodetypes="cccssccssccc"
             style="fill:#f44d27;fill-opacity:1" /></g></g><g
         id="g9"
         transform="translate(0,104.04056)"
         style="fill:#413932;fill-opacity:1"><text
           xml:space="preserve"
           style="font-weight:bold;font-size:23.4723px;font-family:'Open Sans';-inkscape-font-specification:'Open Sans, Bold';text-align:center;text-anchor:middle;fill:#413932;fill-opacity:1;stroke:#000000;stroke-width:0.0231027;stroke-dasharray:none"
           x="86.332428"
           y="45.930965"
           id="text7"><tspan
             sodipodi:role="line"
             id="tspan7"
             style="fill:#413932;fill-opacity:1;stroke-width:0.0231027"
             x="86.332428"
             y="45.930965">Automata</tspan></text><text
           xml:space="preserve"
           style="font-weight:bold;font-size:12.3761px;font-family:'Open Sans';-inkscape-font-specification:'Open Sans, Bold';text-align:center;text-anchor:middle;fill:#413932;fill-opacity:1;stroke:#000000;stroke-width:0.0121813;stroke-dasharray:none"
           x="132.57208"
           y="59.818249"
           id="text8"><tspan
             sodipodi:role="line"
             id="tspan8"
             style="fill:#413932;fill-opacity:1;stroke-width:0.0121813"
             x="132.57208"
             y="59.818249">ZEN</tspan></text></g></g></g></svg>
