<?xml version="1.0" standalone="no"?>
<!DOCTYPE svg PUBLIC "-//W3C//DTD SVG 20010904//EN"
 "http://www.w3.org/TR/2001/REC-SVG-20010904/DTD/svg10.dtd">
<svg version="1.0" xmlns="http://www.w3.org/2000/svg"
 width="680.000000pt" height="680.000000pt" viewBox="0 0 680.000000 680.000000"
 preserveAspectRatio="xMidYMid meet">
<metadata>
Created by potrace 1.14, written by Peter Selinger 2001-2017
</metadata>
<g transform="translate(0.000000,680.000000) scale(0.100000,-0.100000)"
fill="#000000" stroke="none">
<path d="M1079 6447 c-7 -14 -2 -600 5 -605 6 -3 507 -7 1115 -8 2507 -5 3048
-8 3086 -16 82 -18 152 -87 170 -168 5 -19 9 -734 10 -1587 l1 -1553 -168 0
c-92 0 -168 -3 -168 -7 0 -4 11 -23 24 -42 13 -20 71 -115 129 -211 59 -96
110 -179 114 -185 5 -5 35 -55 68 -109 33 -55 70 -116 82 -135 13 -20 26 -43
30 -51 3 -8 9 -17 12 -20 10 -8 81 -127 81 -135 0 -3 6 -12 13 -20 6 -7 25
-35 41 -61 25 -44 30 -47 40 -31 6 10 59 91 117 180 59 89 168 256 243 370 75
114 136 212 136 217 0 4 3 10 8 12 4 1 32 41 62 88 30 47 57 87 60 90 3 3 11
15 18 28 l12 22 -185 0 c-141 0 -185 3 -186 13 0 6 -2 719 -4 1582 -1 864 -5
1581 -8 1595 -4 14 -12 47 -18 74 -33 137 -115 282 -221 388 -37 37 -70 68
-74 68 -3 0 -22 13 -42 29 -82 64 -246 134 -392 168 -70 16 -225 17 -2142 20
-1138 2 -2069 2 -2069 0z"/>
<path d="M998 5238 c-26 -40 -107 -164 -180 -275 -73 -111 -187 -286 -253
-389 -66 -102 -125 -191 -130 -197 -6 -7 -21 -29 -34 -49 l-23 -38 186 0 c142
0 186 -3 187 -12 0 -7 2 -719 3 -1583 2 -863 6 -1583 10 -1600 26 -111 36
-142 73 -225 73 -163 220 -310 398 -398 68 -34 153 -68 190 -76 36 -8 128 -27
170 -35 32 -7 795 -9 2090 -8 l2040 2 0 298 c0 174 -4 301 -9 304 -5 4 -696 8
-1535 10 -839 2 -1785 5 -2101 6 l-575 2 -50 31 c-58 36 -101 93 -111 149 -4
22 -8 736 -9 1588 l-1 1547 169 0 c138 0 168 2 164 14 -3 7 -26 45 -51 85 -25
39 -46 75 -46 80 0 5 -3 11 -7 13 -5 2 -16 17 -26 33 -9 17 -43 72 -75 123
-31 51 -65 106 -74 122 -9 16 -71 116 -137 224 -67 107 -121 199 -121 205 0 6
-4 11 -9 11 -5 0 -14 12 -20 28 -6 15 -21 40 -34 55 l-22 27 -47 -72z"/>
<path d="M3015 4868 c-243 -81 -375 -136 -375 -154 0 -23 93 -259 167 -423 13
-29 23 -60 21 -67 -4 -19 -219 -234 -234 -234 -6 0 -45 14 -85 31 -41 17 -96
40 -124 52 -27 11 -63 26 -80 33 -199 83 -222 89 -229 53 -2 -8 -7 -23 -11
-34 -36 -86 -135 -351 -135 -360 0 -6 21 -21 48 -32 186 -83 320 -148 362
-175 67 -44 78 -73 76 -195 -2 -108 -13 -137 -62 -169 -24 -16 -348 -164 -369
-168 -5 -2 -22 -8 -36 -15 -26 -13 -26 -14 -14 -55 15 -51 39 -109 115 -286
41 -95 47 -103 79 -95 32 8 268 105 379 157 46 21 86 38 89 38 3 0 20 -13 37
-30 191 -182 203 -196 196 -210 -5 -8 -15 -33 -24 -55 -28 -72 -39 -100 -41
-105 -1 -3 -5 -14 -10 -25 -83 -199 -111 -281 -101 -297 13 -22 183 -110 261
-136 102 -34 125 -35 152 -4 28 32 83 136 113 211 43 110 83 182 113 203 25
18 45 22 126 23 109 2 144 -5 179 -37 22 -21 70 -102 61 -104 -2 0 1 -7 8 -15
11 -14 100 -231 122 -302 7 -20 17 -37 22 -37 22 0 306 126 348 154 71 48 72
58 6 236 -31 85 -60 164 -65 175 -13 28 -41 106 -46 130 -4 15 16 41 78 102
102 100 133 116 193 97 23 -7 51 -17 61 -22 25 -14 171 -74 257 -107 84 -31
117 -32 145 -2 23 24 94 178 136 296 25 70 26 74 9 87 -28 22 -121 68 -198 99
-38 15 -83 33 -100 40 -16 7 -68 27 -113 45 l-84 33 6 76 c17 209 15 201 60
245 31 31 72 54 161 91 231 95 262 126 242 240 -2 11 -7 29 -11 40 -18 49
-110 280 -113 284 -4 5 -84 -27 -193 -77 -41 -19 -79 -35 -85 -36 -10 -2 -37
-14 -140 -61 -90 -41 -91 -41 -141 7 -70 65 -128 127 -141 151 -22 40 -13 113
27 202 9 22 30 69 45 105 15 36 34 81 42 100 8 19 17 42 19 50 2 8 6 25 9 36
5 16 -1 28 -20 46 -43 40 -230 129 -328 156 -33 9 -40 8 -58 -11 -20 -22 -115
-203 -139 -267 -23 -59 -78 -139 -109 -158 -37 -22 -198 -28 -250 -9 -33 12
-90 71 -95 98 -1 8 -7 23 -13 34 -5 11 -27 61 -48 110 -21 50 -46 102 -57 117
-10 14 -18 30 -18 35 0 4 -10 20 -23 35 -19 23 -26 25 -52 16z m535 -972 c19
-4 69 -23 110 -43 98 -47 210 -159 258 -257 106 -214 64 -418 -121 -599 -116
-113 -175 -138 -339 -142 -204 -5 -262 15 -378 134 -81 82 -119 141 -152 236
-27 77 -33 210 -13 286 16 60 61 156 85 181 8 8 24 26 36 39 90 103 263 177
404 174 41 -2 91 -6 110 -9z"/>
</g>
</svg>
